<?xml version="1.0" encoding="utf-8"?>
<svg xmlns="http://www.w3.org/2000/svg" xmlns:xlink="http://www.w3.org/1999/xlink" width="600" height="400" viewBox="0 0 2400 1600">
<defs>
  <clipPath id="clip140">
    <rect x="0" y="0" width="2400" height="1600"/>
  </clipPath>
</defs>
<path clip-path="url(#clip140)" d="M0 1600 L2400 1600 L2400 0 L0 0  Z" fill="#ffffff" fill-rule="evenodd" fill-opacity="1"/>
<defs>
  <clipPath id="clip141">
    <rect x="272" y="47" width="2081" height="1377"/>
  </clipPath>
</defs>
<path clip-path="url(#clip140)" d="M272.297 1423.18 L2352.76 1423.18 L2352.76 47.2441 L272.297 47.2441  Z" fill="#ffffff" fill-rule="evenodd" fill-opacity="1"/>
<polyline clip-path="url(#clip141)" style="stroke:#000000; stroke-linecap:round; stroke-linejoin:round; stroke-width:2; stroke-opacity:0.1; fill:none" points="292.722,1423.18 292.722,47.2441 "/>
<polyline clip-path="url(#clip141)" style="stroke:#000000; stroke-linecap:round; stroke-linejoin:round; stroke-width:2; stroke-opacity:0.1; fill:none" points="822.881,1423.18 822.881,47.2441 "/>
<polyline clip-path="url(#clip141)" style="stroke:#000000; stroke-linecap:round; stroke-linejoin:round; stroke-width:2; stroke-opacity:0.1; fill:none" points="1353.04,1423.18 1353.04,47.2441 "/>
<polyline clip-path="url(#clip141)" style="stroke:#000000; stroke-linecap:round; stroke-linejoin:round; stroke-width:2; stroke-opacity:0.1; fill:none" points="1883.2,1423.18 1883.2,47.2441 "/>
<polyline clip-path="url(#clip141)" style="stroke:#000000; stroke-linecap:round; stroke-linejoin:round; stroke-width:2; stroke-opacity:0.1; fill:none" points="272.297,1217.79 2352.76,1217.79 "/>
<polyline clip-path="url(#clip141)" style="stroke:#000000; stroke-linecap:round; stroke-linejoin:round; stroke-width:2; stroke-opacity:0.1; fill:none" points="272.297,952.71 2352.76,952.71 "/>
<polyline clip-path="url(#clip141)" style="stroke:#000000; stroke-linecap:round; stroke-linejoin:round; stroke-width:2; stroke-opacity:0.1; fill:none" points="272.297,687.63 2352.76,687.63 "/>
<polyline clip-path="url(#clip141)" style="stroke:#000000; stroke-linecap:round; stroke-linejoin:round; stroke-width:2; stroke-opacity:0.1; fill:none" points="272.297,422.55 2352.76,422.55 "/>
<polyline clip-path="url(#clip141)" style="stroke:#000000; stroke-linecap:round; stroke-linejoin:round; stroke-width:2; stroke-opacity:0.1; fill:none" points="272.297,157.471 2352.76,157.471 "/>
<polyline clip-path="url(#clip140)" style="stroke:#000000; stroke-linecap:round; stroke-linejoin:round; stroke-width:4; stroke-opacity:1; fill:none" points="272.297,1423.18 2352.76,1423.18 "/>
<polyline clip-path="url(#clip140)" style="stroke:#000000; stroke-linecap:round; stroke-linejoin:round; stroke-width:4; stroke-opacity:1; fill:none" points="292.722,1423.18 292.722,1404.28 "/>
<polyline clip-path="url(#clip140)" style="stroke:#000000; stroke-linecap:round; stroke-linejoin:round; stroke-width:4; stroke-opacity:1; fill:none" points="822.881,1423.18 822.881,1404.28 "/>
<polyline clip-path="url(#clip140)" style="stroke:#000000; stroke-linecap:round; stroke-linejoin:round; stroke-width:4; stroke-opacity:1; fill:none" points="1353.04,1423.18 1353.04,1404.28 "/>
<polyline clip-path="url(#clip140)" style="stroke:#000000; stroke-linecap:round; stroke-linejoin:round; stroke-width:4; stroke-opacity:1; fill:none" points="1883.2,1423.18 1883.2,1404.28 "/>
<path clip-path="url(#clip140)" d="M231.703 1468.75 L261.379 1468.75 L261.379 1472.69 L231.703 1472.69 L231.703 1468.75 Z" fill="#000000" fill-rule="nonzero" fill-opacity="1" /><path clip-path="url(#clip140)" d="M271.518 1451.02 L289.874 1451.02 L289.874 1454.96 L275.8 1454.96 L275.8 1463.43 Q276.819 1463.08 277.837 1462.92 Q278.856 1462.73 279.874 1462.73 Q285.661 1462.73 289.041 1465.9 Q292.421 1469.08 292.421 1474.49 Q292.421 1480.07 288.948 1483.17 Q285.476 1486.25 279.157 1486.25 Q276.981 1486.25 274.712 1485.88 Q272.467 1485.51 270.06 1484.77 L270.06 1480.07 Q272.143 1481.2 274.365 1481.76 Q276.587 1482.32 279.064 1482.32 Q283.069 1482.32 285.407 1480.21 Q287.745 1478.1 287.745 1474.49 Q287.745 1470.88 285.407 1468.77 Q283.069 1466.67 279.064 1466.67 Q277.189 1466.67 275.314 1467.08 Q273.462 1467.5 271.518 1468.38 L271.518 1451.02 Z" fill="#000000" fill-rule="nonzero" fill-opacity="1" /><path clip-path="url(#clip140)" d="M311.634 1454.1 Q308.022 1454.1 306.194 1457.66 Q304.388 1461.2 304.388 1468.33 Q304.388 1475.44 306.194 1479.01 Q308.022 1482.55 311.634 1482.55 Q315.268 1482.55 317.073 1479.01 Q318.902 1475.44 318.902 1468.33 Q318.902 1461.2 317.073 1457.66 Q315.268 1454.1 311.634 1454.1 M311.634 1450.39 Q317.444 1450.39 320.499 1455 Q323.578 1459.58 323.578 1468.33 Q323.578 1477.06 320.499 1481.67 Q317.444 1486.25 311.634 1486.25 Q305.823 1486.25 302.745 1481.67 Q299.689 1477.06 299.689 1468.33 Q299.689 1459.58 302.745 1455 Q305.823 1450.39 311.634 1450.39 Z" fill="#000000" fill-rule="nonzero" fill-opacity="1" /><path clip-path="url(#clip140)" d="M341.795 1454.1 Q338.184 1454.1 336.356 1457.66 Q334.55 1461.2 334.55 1468.33 Q334.55 1475.44 336.356 1479.01 Q338.184 1482.55 341.795 1482.55 Q345.43 1482.55 347.235 1479.01 Q349.064 1475.44 349.064 1468.33 Q349.064 1461.2 347.235 1457.66 Q345.43 1454.1 341.795 1454.1 M341.795 1450.39 Q347.606 1450.39 350.661 1455 Q353.74 1459.58 353.74 1468.33 Q353.74 1477.06 350.661 1481.67 Q347.606 1486.25 341.795 1486.25 Q335.985 1486.25 332.907 1481.67 Q329.851 1477.06 329.851 1468.33 Q329.851 1459.58 332.907 1455 Q335.985 1450.39 341.795 1450.39 Z" fill="#000000" fill-rule="nonzero" fill-opacity="1" /><path clip-path="url(#clip140)" d="M822.881 1454.1 Q819.27 1454.1 817.441 1457.66 Q815.636 1461.2 815.636 1468.33 Q815.636 1475.44 817.441 1479.01 Q819.27 1482.55 822.881 1482.55 Q826.515 1482.55 828.321 1479.01 Q830.149 1475.44 830.149 1468.33 Q830.149 1461.2 828.321 1457.66 Q826.515 1454.1 822.881 1454.1 M822.881 1450.39 Q828.691 1450.39 831.747 1455 Q834.825 1459.58 834.825 1468.33 Q834.825 1477.06 831.747 1481.67 Q828.691 1486.25 822.881 1486.25 Q817.071 1486.25 813.992 1481.67 Q810.937 1477.06 810.937 1468.33 Q810.937 1459.58 813.992 1455 Q817.071 1450.39 822.881 1450.39 Z" fill="#000000" fill-rule="nonzero" fill-opacity="1" /><path clip-path="url(#clip140)" d="M1312.66 1451.02 L1331.02 1451.02 L1331.02 1454.96 L1316.94 1454.96 L1316.94 1463.43 Q1317.96 1463.08 1318.98 1462.92 Q1320 1462.73 1321.02 1462.73 Q1326.8 1462.73 1330.18 1465.9 Q1333.56 1469.08 1333.56 1474.49 Q1333.56 1480.07 1330.09 1483.17 Q1326.62 1486.25 1320.3 1486.25 Q1318.12 1486.25 1315.85 1485.88 Q1313.61 1485.51 1311.2 1484.77 L1311.2 1480.07 Q1313.28 1481.2 1315.51 1481.76 Q1317.73 1482.32 1320.2 1482.32 Q1324.21 1482.32 1326.55 1480.21 Q1328.89 1478.1 1328.89 1474.49 Q1328.89 1470.88 1326.55 1468.77 Q1324.21 1466.67 1320.2 1466.67 Q1318.33 1466.67 1316.45 1467.08 Q1314.6 1467.5 1312.66 1468.38 L1312.66 1451.02 Z" fill="#000000" fill-rule="nonzero" fill-opacity="1" /><path clip-path="url(#clip140)" d="M1352.77 1454.1 Q1349.16 1454.1 1347.33 1457.66 Q1345.53 1461.2 1345.53 1468.33 Q1345.53 1475.44 1347.33 1479.01 Q1349.16 1482.55 1352.77 1482.55 Q1356.41 1482.55 1358.21 1479.01 Q1360.04 1475.44 1360.04 1468.33 Q1360.04 1461.2 1358.21 1457.66 Q1356.41 1454.1 1352.77 1454.1 M1352.77 1450.39 Q1358.58 1450.39 1361.64 1455 Q1364.72 1459.58 1364.72 1468.33 Q1364.72 1477.06 1361.64 1481.67 Q1358.58 1486.25 1352.77 1486.25 Q1346.96 1486.25 1343.89 1481.67 Q1340.83 1477.06 1340.83 1468.33 Q1340.83 1459.58 1343.89 1455 Q1346.96 1450.39 1352.77 1450.39 Z" fill="#000000" fill-rule="nonzero" fill-opacity="1" /><path clip-path="url(#clip140)" d="M1382.94 1454.1 Q1379.32 1454.1 1377.5 1457.66 Q1375.69 1461.2 1375.69 1468.33 Q1375.69 1475.44 1377.5 1479.01 Q1379.32 1482.55 1382.94 1482.55 Q1386.57 1482.55 1388.38 1479.01 Q1390.2 1475.44 1390.2 1468.33 Q1390.2 1461.2 1388.38 1457.66 Q1386.57 1454.1 1382.94 1454.1 M1382.94 1450.39 Q1388.75 1450.39 1391.8 1455 Q1394.88 1459.58 1394.88 1468.33 Q1394.88 1477.06 1391.8 1481.67 Q1388.75 1486.25 1382.94 1486.25 Q1377.13 1486.25 1374.05 1481.67 Q1370.99 1477.06 1370.99 1468.33 Q1370.99 1459.58 1374.05 1455 Q1377.13 1450.39 1382.94 1450.39 Z" fill="#000000" fill-rule="nonzero" fill-opacity="1" /><path clip-path="url(#clip140)" d="M1827.73 1481.64 L1835.36 1481.64 L1835.36 1455.28 L1827.05 1456.95 L1827.05 1452.69 L1835.32 1451.02 L1839.99 1451.02 L1839.99 1481.64 L1847.63 1481.64 L1847.63 1485.58 L1827.73 1485.58 L1827.73 1481.64 Z" fill="#000000" fill-rule="nonzero" fill-opacity="1" /><path clip-path="url(#clip140)" d="M1867.08 1454.1 Q1863.47 1454.1 1861.64 1457.66 Q1859.83 1461.2 1859.83 1468.33 Q1859.83 1475.44 1861.64 1479.01 Q1863.47 1482.55 1867.08 1482.55 Q1870.71 1482.55 1872.52 1479.01 Q1874.35 1475.44 1874.35 1468.33 Q1874.35 1461.2 1872.52 1457.66 Q1870.71 1454.1 1867.08 1454.1 M1867.08 1450.39 Q1872.89 1450.39 1875.94 1455 Q1879.02 1459.58 1879.02 1468.33 Q1879.02 1477.06 1875.94 1481.67 Q1872.89 1486.25 1867.08 1486.25 Q1861.27 1486.25 1858.19 1481.67 Q1855.13 1477.06 1855.13 1468.33 Q1855.13 1459.58 1858.19 1455 Q1861.27 1450.39 1867.08 1450.39 Z" fill="#000000" fill-rule="nonzero" fill-opacity="1" /><path clip-path="url(#clip140)" d="M1897.24 1454.1 Q1893.63 1454.1 1891.8 1457.66 Q1889.99 1461.2 1889.99 1468.33 Q1889.99 1475.44 1891.8 1479.01 Q1893.63 1482.55 1897.24 1482.55 Q1900.87 1482.55 1902.68 1479.01 Q1904.51 1475.44 1904.51 1468.33 Q1904.51 1461.2 1902.68 1457.66 Q1900.87 1454.1 1897.24 1454.1 M1897.24 1450.39 Q1903.05 1450.39 1906.1 1455 Q1909.18 1459.58 1909.18 1468.33 Q1909.18 1477.06 1906.1 1481.67 Q1903.05 1486.25 1897.24 1486.25 Q1891.43 1486.25 1888.35 1481.67 Q1885.29 1477.06 1885.29 1468.33 Q1885.29 1459.58 1888.35 1455 Q1891.43 1450.39 1897.24 1450.39 Z" fill="#000000" fill-rule="nonzero" fill-opacity="1" /><path clip-path="url(#clip140)" d="M1927.4 1454.1 Q1923.79 1454.1 1921.96 1457.66 Q1920.16 1461.2 1920.16 1468.33 Q1920.16 1475.44 1921.96 1479.01 Q1923.79 1482.55 1927.4 1482.55 Q1931.04 1482.55 1932.84 1479.01 Q1934.67 1475.44 1934.67 1468.33 Q1934.67 1461.2 1932.84 1457.66 Q1931.04 1454.1 1927.4 1454.1 M1927.4 1450.39 Q1933.21 1450.39 1936.27 1455 Q1939.35 1459.58 1939.35 1468.33 Q1939.35 1477.06 1936.27 1481.67 Q1933.21 1486.25 1927.4 1486.25 Q1921.59 1486.25 1918.51 1481.67 Q1915.46 1477.06 1915.46 1468.33 Q1915.46 1459.58 1918.51 1455 Q1921.59 1450.39 1927.4 1450.39 Z" fill="#000000" fill-rule="nonzero" fill-opacity="1" /><path clip-path="url(#clip140)" d="M1329.14 1532.4 L1316.25 1549.74 L1329.81 1568.04 L1322.9 1568.04 L1312.53 1554.04 L1302.15 1568.04 L1295.24 1568.04 L1309.09 1549.39 L1296.42 1532.4 L1303.33 1532.4 L1312.78 1545.1 L1322.23 1532.4 L1329.14 1532.4 Z" fill="#000000" fill-rule="nonzero" fill-opacity="1" /><polyline clip-path="url(#clip140)" style="stroke:#000000; stroke-linecap:round; stroke-linejoin:round; stroke-width:4; stroke-opacity:1; fill:none" points="272.297,1423.18 272.297,47.2441 "/>
<polyline clip-path="url(#clip140)" style="stroke:#000000; stroke-linecap:round; stroke-linejoin:round; stroke-width:4; stroke-opacity:1; fill:none" points="272.297,1217.79 291.194,1217.79 "/>
<polyline clip-path="url(#clip140)" style="stroke:#000000; stroke-linecap:round; stroke-linejoin:round; stroke-width:4; stroke-opacity:1; fill:none" points="272.297,952.71 291.194,952.71 "/>
<polyline clip-path="url(#clip140)" style="stroke:#000000; stroke-linecap:round; stroke-linejoin:round; stroke-width:4; stroke-opacity:1; fill:none" points="272.297,687.63 291.194,687.63 "/>
<polyline clip-path="url(#clip140)" style="stroke:#000000; stroke-linecap:round; stroke-linejoin:round; stroke-width:4; stroke-opacity:1; fill:none" points="272.297,422.55 291.194,422.55 "/>
<polyline clip-path="url(#clip140)" style="stroke:#000000; stroke-linecap:round; stroke-linejoin:round; stroke-width:4; stroke-opacity:1; fill:none" points="272.297,157.471 291.194,157.471 "/>
<path clip-path="url(#clip140)" d="M114.26 1218.24 L143.936 1218.24 L143.936 1222.18 L114.26 1222.18 L114.26 1218.24 Z" fill="#000000" fill-rule="nonzero" fill-opacity="1" /><path clip-path="url(#clip140)" d="M154.075 1200.51 L172.431 1200.51 L172.431 1204.44 L158.357 1204.44 L158.357 1212.92 Q159.376 1212.57 160.394 1212.41 Q161.413 1212.22 162.431 1212.22 Q168.218 1212.22 171.598 1215.39 Q174.977 1218.56 174.977 1223.98 Q174.977 1229.56 171.505 1232.66 Q168.033 1235.74 161.714 1235.74 Q159.538 1235.74 157.269 1235.37 Q155.024 1235 152.616 1234.26 L152.616 1229.56 Q154.7 1230.69 156.922 1231.25 Q159.144 1231.81 161.621 1231.81 Q165.626 1231.81 167.964 1229.7 Q170.302 1227.59 170.302 1223.98 Q170.302 1220.37 167.964 1218.26 Q165.626 1216.16 161.621 1216.16 Q159.746 1216.16 157.871 1216.57 Q156.019 1216.99 154.075 1217.87 L154.075 1200.51 Z" fill="#000000" fill-rule="nonzero" fill-opacity="1" /><path clip-path="url(#clip140)" d="M194.19 1203.59 Q190.579 1203.59 188.75 1207.15 Q186.945 1210.69 186.945 1217.82 Q186.945 1224.93 188.75 1228.5 Q190.579 1232.04 194.19 1232.04 Q197.825 1232.04 199.63 1228.5 Q201.459 1224.93 201.459 1217.82 Q201.459 1210.69 199.63 1207.15 Q197.825 1203.59 194.19 1203.59 M194.19 1199.88 Q200 1199.88 203.056 1204.49 Q206.135 1209.07 206.135 1217.82 Q206.135 1226.55 203.056 1231.16 Q200 1235.74 194.19 1235.74 Q188.38 1235.74 185.301 1231.16 Q182.246 1226.55 182.246 1217.82 Q182.246 1209.07 185.301 1204.49 Q188.38 1199.88 194.19 1199.88 Z" fill="#000000" fill-rule="nonzero" fill-opacity="1" /><path clip-path="url(#clip140)" d="M224.352 1203.59 Q220.741 1203.59 218.912 1207.15 Q217.107 1210.69 217.107 1217.82 Q217.107 1224.93 218.912 1228.5 Q220.741 1232.04 224.352 1232.04 Q227.986 1232.04 229.792 1228.5 Q231.621 1224.93 231.621 1217.82 Q231.621 1210.69 229.792 1207.15 Q227.986 1203.59 224.352 1203.59 M224.352 1199.88 Q230.162 1199.88 233.218 1204.49 Q236.297 1209.07 236.297 1217.82 Q236.297 1226.55 233.218 1231.16 Q230.162 1235.74 224.352 1235.74 Q218.542 1235.74 215.463 1231.16 Q212.408 1226.55 212.408 1217.82 Q212.408 1209.07 215.463 1204.49 Q218.542 1199.88 224.352 1199.88 Z" fill="#000000" fill-rule="nonzero" fill-opacity="1" /><path clip-path="url(#clip140)" d="M114.26 953.161 L143.936 953.161 L143.936 957.096 L114.26 957.096 L114.26 953.161 Z" fill="#000000" fill-rule="nonzero" fill-opacity="1" /><path clip-path="url(#clip140)" d="M158.056 966.054 L174.376 966.054 L174.376 969.99 L152.431 969.99 L152.431 966.054 Q155.093 963.3 159.677 958.67 Q164.283 954.017 165.464 952.675 Q167.709 950.152 168.589 948.416 Q169.491 946.656 169.491 944.967 Q169.491 942.212 167.547 940.476 Q165.626 938.74 162.524 938.74 Q160.325 938.74 157.871 939.504 Q155.44 940.268 152.663 941.818 L152.663 937.096 Q155.487 935.962 157.94 935.383 Q160.394 934.805 162.431 934.805 Q167.802 934.805 170.996 937.49 Q174.19 940.175 174.19 944.666 Q174.19 946.795 173.38 948.717 Q172.593 950.615 170.487 953.207 Q169.908 953.879 166.806 957.096 Q163.704 960.291 158.056 966.054 Z" fill="#000000" fill-rule="nonzero" fill-opacity="1" /><path clip-path="url(#clip140)" d="M184.237 935.43 L202.593 935.43 L202.593 939.365 L188.519 939.365 L188.519 947.837 Q189.538 947.49 190.556 947.328 Q191.575 947.142 192.593 947.142 Q198.38 947.142 201.76 950.314 Q205.139 953.485 205.139 958.902 Q205.139 964.48 201.667 967.582 Q198.195 970.661 191.875 970.661 Q189.7 970.661 187.431 970.291 Q185.186 969.92 182.778 969.179 L182.778 964.48 Q184.862 965.615 187.084 966.17 Q189.306 966.726 191.783 966.726 Q195.787 966.726 198.125 964.619 Q200.463 962.513 200.463 958.902 Q200.463 955.291 198.125 953.184 Q195.787 951.078 191.783 951.078 Q189.908 951.078 188.033 951.494 Q186.181 951.911 184.237 952.791 L184.237 935.43 Z" fill="#000000" fill-rule="nonzero" fill-opacity="1" /><path clip-path="url(#clip140)" d="M224.352 938.508 Q220.741 938.508 218.912 942.073 Q217.107 945.615 217.107 952.744 Q217.107 959.851 218.912 963.416 Q220.741 966.957 224.352 966.957 Q227.986 966.957 229.792 963.416 Q231.621 959.851 231.621 952.744 Q231.621 945.615 229.792 942.073 Q227.986 938.508 224.352 938.508 M224.352 934.805 Q230.162 934.805 233.218 939.411 Q236.297 943.994 236.297 952.744 Q236.297 961.471 233.218 966.078 Q230.162 970.661 224.352 970.661 Q218.542 970.661 215.463 966.078 Q212.408 961.471 212.408 952.744 Q212.408 943.994 215.463 939.411 Q218.542 934.805 224.352 934.805 Z" fill="#000000" fill-rule="nonzero" fill-opacity="1" /><path clip-path="url(#clip140)" d="M224.352 673.429 Q220.741 673.429 218.912 676.993 Q217.107 680.535 217.107 687.665 Q217.107 694.771 218.912 698.336 Q220.741 701.878 224.352 701.878 Q227.986 701.878 229.792 698.336 Q231.621 694.771 231.621 687.665 Q231.621 680.535 229.792 676.993 Q227.986 673.429 224.352 673.429 M224.352 669.725 Q230.162 669.725 233.218 674.331 Q236.297 678.915 236.297 687.665 Q236.297 696.391 233.218 700.998 Q230.162 705.581 224.352 705.581 Q218.542 705.581 215.463 700.998 Q212.408 696.391 212.408 687.665 Q212.408 678.915 215.463 674.331 Q218.542 669.725 224.352 669.725 Z" fill="#000000" fill-rule="nonzero" fill-opacity="1" /><path clip-path="url(#clip140)" d="M158.056 435.895 L174.376 435.895 L174.376 439.83 L152.431 439.83 L152.431 435.895 Q155.093 433.14 159.677 428.511 Q164.283 423.858 165.464 422.516 Q167.709 419.992 168.589 418.256 Q169.491 416.497 169.491 414.807 Q169.491 412.053 167.547 410.316 Q165.626 408.58 162.524 408.58 Q160.325 408.58 157.871 409.344 Q155.44 410.108 152.663 411.659 L152.663 406.937 Q155.487 405.803 157.94 405.224 Q160.394 404.645 162.431 404.645 Q167.802 404.645 170.996 407.33 Q174.19 410.016 174.19 414.506 Q174.19 416.636 173.38 418.557 Q172.593 420.455 170.487 423.048 Q169.908 423.719 166.806 426.937 Q163.704 430.131 158.056 435.895 Z" fill="#000000" fill-rule="nonzero" fill-opacity="1" /><path clip-path="url(#clip140)" d="M184.237 405.27 L202.593 405.27 L202.593 409.205 L188.519 409.205 L188.519 417.678 Q189.538 417.33 190.556 417.168 Q191.575 416.983 192.593 416.983 Q198.38 416.983 201.76 420.154 Q205.139 423.326 205.139 428.742 Q205.139 434.321 201.667 437.423 Q198.195 440.502 191.875 440.502 Q189.7 440.502 187.431 440.131 Q185.186 439.761 182.778 439.02 L182.778 434.321 Q184.862 435.455 187.084 436.011 Q189.306 436.566 191.783 436.566 Q195.787 436.566 198.125 434.46 Q200.463 432.353 200.463 428.742 Q200.463 425.131 198.125 423.025 Q195.787 420.918 191.783 420.918 Q189.908 420.918 188.033 421.335 Q186.181 421.752 184.237 422.631 L184.237 405.27 Z" fill="#000000" fill-rule="nonzero" fill-opacity="1" /><path clip-path="url(#clip140)" d="M224.352 408.349 Q220.741 408.349 218.912 411.914 Q217.107 415.455 217.107 422.585 Q217.107 429.691 218.912 433.256 Q220.741 436.798 224.352 436.798 Q227.986 436.798 229.792 433.256 Q231.621 429.691 231.621 422.585 Q231.621 415.455 229.792 411.914 Q227.986 408.349 224.352 408.349 M224.352 404.645 Q230.162 404.645 233.218 409.252 Q236.297 413.835 236.297 422.585 Q236.297 431.312 233.218 435.918 Q230.162 440.502 224.352 440.502 Q218.542 440.502 215.463 435.918 Q212.408 431.312 212.408 422.585 Q212.408 413.835 215.463 409.252 Q218.542 404.645 224.352 404.645 Z" fill="#000000" fill-rule="nonzero" fill-opacity="1" /><path clip-path="url(#clip140)" d="M154.075 140.191 L172.431 140.191 L172.431 144.126 L158.357 144.126 L158.357 152.598 Q159.376 152.251 160.394 152.089 Q161.413 151.903 162.431 151.903 Q168.218 151.903 171.598 155.075 Q174.977 158.246 174.977 163.663 Q174.977 169.241 171.505 172.343 Q168.033 175.422 161.714 175.422 Q159.538 175.422 157.269 175.051 Q155.024 174.681 152.616 173.94 L152.616 169.241 Q154.7 170.376 156.922 170.931 Q159.144 171.487 161.621 171.487 Q165.626 171.487 167.964 169.38 Q170.302 167.274 170.302 163.663 Q170.302 160.052 167.964 157.945 Q165.626 155.839 161.621 155.839 Q159.746 155.839 157.871 156.255 Q156.019 156.672 154.075 157.552 L154.075 140.191 Z" fill="#000000" fill-rule="nonzero" fill-opacity="1" /><path clip-path="url(#clip140)" d="M194.19 143.269 Q190.579 143.269 188.75 146.834 Q186.945 150.376 186.945 157.505 Q186.945 164.612 188.75 168.177 Q190.579 171.718 194.19 171.718 Q197.825 171.718 199.63 168.177 Q201.459 164.612 201.459 157.505 Q201.459 150.376 199.63 146.834 Q197.825 143.269 194.19 143.269 M194.19 139.566 Q200 139.566 203.056 144.172 Q206.135 148.755 206.135 157.505 Q206.135 166.232 203.056 170.839 Q200 175.422 194.19 175.422 Q188.38 175.422 185.301 170.839 Q182.246 166.232 182.246 157.505 Q182.246 148.755 185.301 144.172 Q188.38 139.566 194.19 139.566 Z" fill="#000000" fill-rule="nonzero" fill-opacity="1" /><path clip-path="url(#clip140)" d="M224.352 143.269 Q220.741 143.269 218.912 146.834 Q217.107 150.376 217.107 157.505 Q217.107 164.612 218.912 168.177 Q220.741 171.718 224.352 171.718 Q227.986 171.718 229.792 168.177 Q231.621 164.612 231.621 157.505 Q231.621 150.376 229.792 146.834 Q227.986 143.269 224.352 143.269 M224.352 139.566 Q230.162 139.566 233.218 144.172 Q236.297 148.755 236.297 157.505 Q236.297 166.232 233.218 170.839 Q230.162 175.422 224.352 175.422 Q218.542 175.422 215.463 170.839 Q212.408 166.232 212.408 157.505 Q212.408 148.755 215.463 144.172 Q218.542 139.566 224.352 139.566 Z" fill="#000000" fill-rule="nonzero" fill-opacity="1" /><path clip-path="url(#clip140)" d="M67.3143 733.525 Q73.68 736.008 75.6216 738.363 Q77.5631 740.718 77.5631 744.665 L77.5631 749.344 L72.6615 749.344 L72.6615 745.906 Q72.6615 743.487 71.5157 742.151 Q70.3699 740.814 66.1048 739.191 L63.4312 738.14 L28.3562 752.559 L28.3562 746.352 L56.238 735.212 L28.3562 724.072 L28.3562 717.865 L67.3143 733.525 Z" fill="#000000" fill-rule="nonzero" fill-opacity="1" /><polyline clip-path="url(#clip141)" style="stroke:#009af9; stroke-linecap:round; stroke-linejoin:round; stroke-width:4; stroke-opacity:1; fill:none" points="1265.42,193.122 1265.44,189.896 1263.51,192.019 1261.58,194.142 1259.65,196.265 1262.02,194.125 1261.32,197.562 1260.62,201 1259.93,204.437 1259.23,207.874 1258.53,211.311 1257.83,214.748 1257.14,218.186 1256.44,221.623 1255.74,225.06 1255.04,228.497 1254.35,231.934 1253.65,235.371 1252.95,238.809 1252.25,242.246 1251.56,245.683 1250.86,249.12 1250.16,252.557 1249.46,255.995 1248.77,259.432 1248.07,262.869 1247.37,266.306 1246.67,269.743 1245.98,273.18 1247.57,275.025 1249.17,276.87 1250.77,278.714 1252.36,280.559 1249.99,277.726 1247.63,274.892 1245.26,272.059 1242.89,269.225 1240.52,266.391 1238.15,263.558 1235.78,260.724 1233.41,257.891 1231.04,255.057 1228.68,252.224 1226.31,249.39 1223.94,246.557 1221.57,243.723 1219.2,240.889 1216.83,238.056 1214.46,235.222 1212.09,232.389 1209.72,229.555 1207.36,226.722 1204.99,223.888 1202.62,221.055 1200.25,218.221 1197.88,215.387 1195.51,212.554 1193.14,209.72 1190.77,206.887 1188.41,204.053 1186.04,201.22 1183.67,198.386 1181.3,195.553 1178.93,192.719 1176.56,189.886 1174.19,187.052 1171.82,184.218 1169.46,181.385 1167.09,178.551 1164.72,175.718 1162.35,172.884 1159.98,170.051 1157.61,167.217 1155.24,164.384 1158.28,164.514 1161.31,164.645 1163.05,166.537 1164.8,168.43 1166.39,171.045 1167.98,173.66 1169.58,176.275 1171.17,178.891 1172.76,181.506 1174.36,184.121 1175.95,186.736 1177.54,189.351 1179.14,191.967 1180.73,194.582 1182.32,197.197 1183.92,199.812 1185.72,196.874 1186.96,199.12 1190.14,198.37 1193.32,197.62 1196.49,196.87 1199.67,196.12 1202.84,195.369 1206.02,194.619 1209.2,193.869 1212.37,193.119 1215.55,192.368 1218.73,191.618 1221.9,190.868 1225.08,190.118 1228.25,189.367 1226.06,187.284 1223.87,185.201 1221.68,183.117 1219.48,181.034 1217.29,178.95 1215.1,176.867 1212.91,174.784 1210.71,172.7 1208.52,170.617 1206.33,168.533 1204.14,166.45 1201.94,164.367 1199.75,162.283 1197.56,160.2 1195.37,158.116 1197.92,160.027 1200.47,161.938 1203.02,163.85 1205.57,165.761 1208.12,167.672 1210.67,169.583 1213.22,171.494 1215.77,173.405 1218.32,175.316 1220.87,177.227 1223.42,179.138 1225.98,181.049 1228.53,182.96 1231.08,184.871 1233.21,183.265 1235.35,181.658 1237.48,180.052 1239.62,178.446 1238.99,175.663 1238.35,172.881 1237.72,170.099 1237.09,167.317 1236.61,163.28 1236.13,159.243 1235.65,155.206 1235.17,151.169 1234.69,147.132 1234.21,143.095 1233.73,139.058 1235.98,136.762 1238.22,134.466 1240.47,132.169 1242.71,129.873 1244.95,127.577 1247.2,125.28 1251.63,123.594 1256.07,121.908 1260.5,120.222 1264.94,118.536 1269.37,116.851 1271.23,116.085 1273.1,115.319 1274.96,114.553 1276.82,113.787 1274.86,116.787 1272.9,119.788 1270.94,122.788 1268.98,125.789 1267.02,128.789 1265.06,131.789 1263.1,134.79 1261.14,137.79 1261.18,134.625 1261.22,131.46 1261.26,128.295 1261.3,125.129 1261.33,121.964 1261.37,118.799 1261.41,115.634 1261.45,112.469 1261.49,109.303 1261.52,106.138 1265.29,104.88 1269.05,103.622 1272.81,102.364 1276.57,101.106 1279.21,99.2409 1281.85,97.3759 1284.48,95.5108 1287.12,93.6458 1289.76,91.7808 1292.39,89.9157 1295.03,88.0507 1297.67,86.1857 1298.1,88.8726 1298.53,91.5595 1298.97,94.2465 1299.4,96.9334 1299.83,99.6203 1300.27,102.307 1300.7,104.994 1301.13,107.681 1301.57,110.368 1302,113.055 1302.44,115.742 1302.87,118.429 1303.3,121.116 1303.74,123.803 1304.17,126.49 1304.6,129.177 1305.04,131.864 1305.47,134.55 1305.9,137.237 1303.37,137.712 1301.42,136.544 1299.48,135.376 1297.54,134.207 1295.6,133.039 1293.65,131.871 1291.71,130.703 1289.77,129.534 1287.82,128.366 1285.88,127.198 1283.94,126.029 1282,124.861 1280.05,123.693 1277.81,122.303 1274.47,123.895 1271.14,125.487 1267.8,127.078 1264.47,128.67 1261.13,130.262 1257.79,131.853 1254.46,133.445 1251.12,135.037 1250.64,132.534 1249.21,129.11 1253.12,130.175 1257.04,131.241 1260.95,132.306 1264.87,133.371 1268.78,134.436 1272.69,135.501 1276.61,136.566 1280.52,137.632 1284.44,138.697 1288.35,139.762 1292.26,140.827 1296.18,141.892 1300.09,142.957 1303.01,142.563 1305.92,142.168 1308.84,141.773 1311.75,141.378 1314.66,140.983 1317.58,140.588 1321.63,140.922 1325.67,141.255 1329.72,141.588 1333.77,141.922 1337.82,142.255 1341.87,142.588 1345.91,142.922 1349.96,143.255 1354.01,143.588 1355.52,139.949 1357.03,136.311 1358.54,132.672 1360.05,129.033 1361.56,125.394 1364.32,128.609 1367.08,131.825 1369.83,135.04 1372.59,138.256 1375.35,141.471 1378.1,144.686 1380.86,147.902 1383.62,151.117 1386.37,154.332 1389.13,157.548 1391.89,160.763 1394.64,163.979 1397.4,167.194 1400.16,170.409 1402.92,173.625 1405.67,176.84 1408.43,180.055 1411.19,183.271 1413.94,186.486 1416.7,189.702 1419.46,192.917 1422.21,196.132 1424.97,199.348 1427.73,202.563 1430.48,205.778 1433.24,208.994 1436,212.209 1438.75,215.425 1441.51,218.64 1444.27,221.855 1447.02,225.071 1449.78,228.286 1452.54,231.502 1455.3,234.717 1458.05,237.932 1460.81,241.148 1463.57,244.363 1466.32,247.578 1469.08,250.794 1471.84,254.009 1474.59,257.225 1477.57,254.416 1480.55,251.607 1483.54,248.799 1486.52,245.99 1489.5,243.182 1492.48,240.373 1495.46,237.565 1498.44,234.756 1501.42,231.948 1499.18,229.74 1496.93,227.532 1494.69,225.324 1492.45,223.116 1490.2,220.908 1490.48,217.844 1490.75,214.78 1493.18,216.384 1495.61,217.987 1498.04,219.591 1500.47,221.195 1502.9,222.798 1505.33,224.402 1507.76,226.005 1510.19,227.609 1512.62,229.213 1515.05,230.816 1517.48,232.42 1519.91,234.023 1522.34,235.627 1524.77,237.231 1527.2,238.834 1529.63,240.438 1532.07,242.042 1534.5,243.645 1536.93,245.249 1539.36,246.852 1541.79,248.456 1544.22,250.06 1546.65,251.663 1548.64,253.922 1550.64,256.18 1552.64,258.438 1554.64,260.697 1556.63,262.955 1558.63,265.213 1560.63,267.472 1562.62,269.73 1564.62,271.988 1566.62,274.247 1568.62,276.505 1570.61,278.764 1568.02,275.874 1565.29,278.369 1562.56,280.864 1559.83,283.36 1557.1,285.855 1560.03,284.885 1562.95,283.916 1565.88,282.946 1568.8,281.977 1571.73,281.007 1574.65,280.038 1577.58,279.068 1580.51,278.099 1583.43,277.129 1586.36,276.16 1589.28,275.19 1592.21,274.221 1595.13,273.251 1598.06,272.282 1600.99,271.312 1603.91,270.343 1606.84,269.373 1609.76,268.404 1612.69,267.434 1615.61,266.465 1618.54,265.495 1621.47,264.526 1620.48,262.589 1619.5,260.653 1618.51,258.717 1617.53,256.781 1616.55,254.845 1615.56,252.909 1614.68,249.871 1613.79,246.833 1612.9,243.796 1612.01,240.758 1611.13,237.721 1610.24,234.683 1609.35,231.646 1608.47,228.608 1607.58,225.571 1606.69,222.533 1605.8,219.495 1604.92,216.458 1604.03,213.42 1606.74,212.937 1609.46,212.454 1612.17,211.97 1614.89,211.487 1616.8,213.876 1618.71,216.265 1620.62,218.654 1622.54,221.043 1624.45,223.433 1627.84,224.824 1630.36,224.815 1632.7,222.592 1635.05,220.37 1637.39,218.147 1636.91,215.369 1636.43,212.59 1635.95,209.811 1638.53,210.94 1641.1,212.068 1643.67,213.196 1646.25,214.325 1648.82,215.453 1651.4,216.581 1653.97,217.709 1656.55,218.838 1659.24,220.663 1661.93,222.489 1664.62,224.315 1667.32,226.14 1670.01,227.966 1672.7,229.791 1674.77,232.103 1676.83,234.416 1678.89,236.728 1680.96,239.04 1683.02,241.352 1685.09,243.664 1687.26,245.22 1689.42,246.776 1691.59,248.332 1693.76,249.888 1695.93,251.443 1698.09,252.999 1700.26,254.555 1702.43,256.111 1700.2,259.39 1697.97,262.668 1695.74,265.947 1693.51,269.225 1691.28,272.504 1689.05,275.782 1686.83,279.06 1684.6,282.339 1682.37,285.617 1680.14,288.896 1677.91,292.174 1675.68,295.453 1672.83,293.848 1669.97,292.244 1667.11,290.639 1664.26,289.035 1661.4,287.43 1658.55,285.825 1655.69,284.221 1652.83,282.616 1654.48,286.064 1656.12,289.511 1657.77,292.959 1659.41,296.406 1661.05,299.853 1662.7,303.301 1664.34,306.748 1665.99,310.196 1667.63,313.643 1669.27,317.091 1670.92,320.538 1672.56,323.985 1674.21,327.433 1675.85,330.88 1673.72,329.297 1671.59,327.713 1670.9,325.137 1670.21,322.56 1669.52,319.984 1668.83,317.408 1668.14,314.831 1669.87,311.293 1671.61,307.755 1673.34,304.217 1675.08,300.679 1676.81,297.14 1678.55,293.602 1680.28,290.064 1683.92,290.049 1687.57,290.034 1691.21,290.019 1694.85,290.004 1698.5,289.989 1702.14,289.974 1705.78,289.959 1709.43,289.944 1713.07,289.929 1716.71,289.914 1720.36,289.899 1724,289.884 1727.65,289.869 1731.29,289.854 1734.93,289.839 1738.58,289.824 1742.22,289.809 1745.86,289.794 1749.51,289.78 1753.15,289.765 1756.79,289.75 1760.44,289.735 1764.08,289.72 1767.72,289.705 1771.37,289.69 1775.01,289.675 1778.65,289.66 1782.3,289.645 1779.92,287.595 1777.55,285.545 1775.17,283.495 1772.8,281.445 1770.42,279.395 1768.04,277.346 1765.67,275.296 1763.29,273.246 1760.92,271.196 "/>
<polyline clip-path="url(#clip141)" style="stroke:#e26f46; stroke-linecap:round; stroke-linejoin:round; stroke-width:4; stroke-opacity:1; fill:none" points="882.44,638.096 882.365,641.276 882.053,644.442 881.517,647.577 881.833,650.742 881.38,653.891 881.197,657.066 880.314,660.122 878.011,662.317 875.7,664.503 873.055,666.27 870.086,667.413 871.631,665.959 872.408,663.986 872.988,661.946 873.331,659.854 873.833,657.793 875.008,656.028 876.027,654.168 877.177,652.386 878.068,650.462 879.066,648.591 879.874,646.63 880.614,644.643 881.688,642.814 882.538,640.871 883.47,638.966 882.302,641.925 880.789,644.723 879.76,647.733 878.625,650.705 877.242,653.569 876.642,656.693 876.421,659.866 876.123,663.033 876.902,666.117 877.497,669.242 878.055,672.374 879.124,675.37 878.087,673.52 876.975,671.714 876.229,669.729 875.626,667.696 875.036,665.659 875.631,668.784 876.476,671.851 876.148,675.015 877.116,678.045 877.429,681.21 878.129,684.313 877.343,682.344 875.993,680.709 874.844,678.926 875.906,681.925 876.253,685.087 876.33,688.267 876.384,691.447 877.414,694.457 878.333,697.502 879.169,700.571 879.625,703.719 880.297,706.828 880.379,710.008 880.574,713.183 880.614,716.364 879.993,719.484 879.593,722.639 879.981,725.796 880.706,728.894 880.804,732.073 880.049,735.163 879.712,738.326 879.035,741.434 878.205,744.505 878.975,742.529 879.771,740.564 880.144,738.476 881.016,736.543 882.332,734.88 883.791,733.341 881.734,735.768 883.21,734.245 884.655,732.693 886.118,731.158 884.117,733.63 881.817,735.827 879.779,738.27 878.272,741.072 876.314,743.578 875.115,746.525 873.516,749.274 872.177,752.16 871.424,755.251 871.311,758.43 871.915,761.553 872.48,764.683 872.555,767.863 872.794,771.035 872.869,774.215 872.879,772.095 873.199,775.259 873.696,778.401 874.052,781.562 873.902,784.74 872.728,787.696 871.164,790.466 869.124,792.907 867.54,795.665 865.853,798.362 863.904,800.876 862.483,803.722 860.552,806.25 857.987,808.13 855.426,810.018 852.754,811.743 849.767,812.839 846.775,813.919 844.847,816.449 844.189,819.561 844.38,822.736 845.309,825.779 844.639,823.767 843.622,821.906 842.756,819.97 844.67,822.511 846.541,825.083 848.391,827.671 850.453,830.093 851.962,832.893 854.675,834.554 856.823,836.9 859.396,838.771 862.027,840.559 864.917,841.888 867.963,842.803 871.025,843.667 873.626,845.498 876.489,846.884 878.956,848.892 881.339,850.999 884.104,852.573 887.058,853.752 889.854,855.268 892.856,856.321 895.611,857.911 898.043,859.962 900.542,861.93 902.727,864.241 900.863,863.231 898.856,862.545 896.735,862.52 894.642,862.181 892.594,861.63 890.711,860.655 889.388,858.998 888.009,857.386 886.617,855.787 886.093,853.732 885.316,851.759 884.784,849.706 884.277,847.647 883.505,845.671 882.935,843.629 882.383,841.581 882.69,839.483 883.191,837.423 883.942,835.439 884.404,833.37 884.709,831.271 885.944,829.547 884.247,832.238 882.736,835.037 881.487,837.962 879.981,840.764 878.083,843.317 875.727,845.454 873.124,847.282 870.526,849.117 872.177,847.787 873.329,846.006 872.486,849.073 871.499,852.097 870.07,854.939 869.288,858.023 869.281,861.204 869.447,859.09 869.046,857.007 868.608,854.932 869.232,858.051 871.327,860.445 872.697,863.316 873.982,866.225 875.189,869.168 875.817,872.287 877.069,875.211 878.054,878.235 878.957,881.285 879.003,884.466 878.941,887.646 877.563,890.514 876.798,893.601 875.897,896.652 876.162,894.548 875.902,892.443 875.491,890.363 875.405,888.244 875.256,891.421 875.545,894.589 875.492,897.769 875.303,900.945 874.659,904.06 874.825,907.237 875.55,910.334 875.249,913.501 874.32,916.543 874.337,919.724 874.275,922.904 874.337,926.085 874.078,923.98 873.486,921.943 873.042,919.87 872.9,917.754 872.575,915.658 873.802,918.593 874.746,921.631 876.457,924.313 878.346,926.872 881.084,928.491 883.881,930.006 886.702,931.477 889.302,933.308 892.012,934.974 894.684,936.7 897.228,938.61 899.542,940.793 901.66,943.166 902.864,946.11 903.829,949.141 904.394,952.272 905.407,955.287 906.323,958.333 907.827,961.136 909.242,963.985 911.222,966.475 912.862,969.2 914.193,972.089 915.906,974.77 918.123,977.051 920.531,979.129 922.956,981.188 925.475,983.131 926.552,986.124 926.328,989.297 925.166,992.258 923.116,994.69 921.146,997.188 919.702,1000.02 918.97,1003.12 917.106,1005.69 915.812,1008.6 916.803,1006.73 917.73,1004.82 918.948,1003.08 919.597,1001.06 921.058,999.527 922.313,997.818 923.358,995.972 924.188,994.021 923.766,997.174 923.555,1000.35 922.775,1003.43 921.415,1006.31 920.002,1009.16 918.475,1011.95 916.904,1014.71 914.95,1017.22 914.368,1020.35 914.155,1023.52 914.092,1026.7 914.381,1029.87 915.839,1032.7 918.157,1034.88 920.399,1037.13 922.974,1039 926.007,1039.96 929.014,1041 932.026,1042.02 935.014,1043.11 937.757,1044.72 940.938,1044.75 944.116,1044.88 947.27,1044.47 950.45,1044.54 953.629,1044.42 956.734,1045.11 959.644,1046.39 962.443,1047.91 964.887,1049.94 967.697,1051.43 970.501,1052.93 973.29,1054.46 976.318,1055.44 979.257,1056.66 982.29,1057.61 985.167,1058.97 987.71,1060.88 990.358,1062.64 993.133,1064.2 995.9,1065.77 998.73,1067.22 1001.7,1068.37 1004.46,1069.93 1007.08,1071.75 1009.71,1073.53 1012.12,1075.61 1014.33,1077.9 1016.53,1080.19 1019.19,1081.94 1017.23,1081.12 1015.33,1080.19 1013.41,1079.29 1011.49,1078.38 1009.52,1077.59 1007.55,1076.81 1005.52,1076.2 1003.53,1075.47 1001.86,1074.16 999.912,1073.32 997.988,1072.43 996.51,1070.91 995.079,1069.35 993.998,1067.52 993.598,1065.44 993.169,1063.36 992.789,1061.28 992.966,1064.45 994.034,1067.45 995.696,1070.16 997.762,1072.58 999.297,1075.37 1000.56,1078.28 1001.63,1081.28 1002.76,1084.25 1003.46,1087.36 1003.61,1090.53 1004.25,1093.65 1005.51,1096.57 1006.4,1099.62 1008.19,1102.25 1010.95,1103.84 1013.82,1105.22 1016.82,1106.26 1019.66,1107.69 1022.68,1108.7 1025.58,1110 1028.07,1111.99 1029.87,1114.61 1032.46,1116.45 1030.81,1115.12 1029.03,1113.97 1031.44,1116.04 1033.51,1118.46 1035.73,1120.74 1038.14,1122.82 1041,1124.19 1044.16,1124.57 1047.34,1124.36 1050.51,1124.16 1053.66,1124.64 1056.79,1125.15 1059.8,1126.18 1062.98,1126.36 1066.13,1126.8 1069.1,1127.94 1072.26,1128.31 1075.37,1128.99 1078.34,1130.13 1076.22,1129.95 1074.22,1129.26 1072.29,1128.36 1075.22,1129.6 1078.38,1130.03 1081.5,1130.65 1084.66,1131.01 1087.6,1132.21 1090.16,1134.1 1092.69,1136.03 1095.24,1137.93 1093.31,1137.06 1091.25,1136.54 1089.37,1135.57 1087.84,1134.09 1086.35,1132.59 1084.53,1131.5 1082.56,1130.72 1080.51,1130.17 1083.52,1131.2 1086.42,1132.5 1089.51,1133.27 1092.62,1133.93 1090.54,1133.51 1093.69,1133.95 1091.58,1133.81 1089.5,1133.39 1092.66,1133.78 1095.68,1134.75 1098.57,1136.08 1101.56,1137.18 1104.43,1138.55 1106.7,1140.78 1107.9,1143.72 1109.11,1146.67 1111.1,1149.14 1113.49,1151.25 1115.34,1153.84 1114.24,1152.03 1115.71,1154.84 1114.45,1153.14 1112.8,1151.81 1111.54,1150.1 1110.46,1148.28 1110.93,1151.42 1111.19,1154.59 1110.24,1157.63 1108.59,1160.35 1106.71,1162.91 1105.53,1165.87 1104.54,1168.89 1103.07,1171.71 1101.78,1174.62 1101.17,1177.74 1099.97,1180.69 1098.53,1183.52 1097.08,1186.35 1095.52,1189.13 1094,1191.92 1093.27,1195.02 1092.75,1198.16 1092.5,1201.33 1091.69,1204.4 1091.99,1207.57 1091.9,1210.75 1092.91,1213.77 1092.86,1216.95 1092.3,1220.08 1091.92,1223.24 1092.14,1226.41 1092.12,1229.59 1091.81,1232.76 1090.75,1235.75 1089.15,1238.5 1087.51,1241.23 1085.4,1243.61 1082.9,1245.58 1079.9,1246.63 1076.81,1247.38 1073.95,1248.77 1070.82,1249.37 1068.09,1250.99 1065.4,1252.69 1062.47,1253.93 1059.32,1254.34 1056.19,1254.92 1053.07,1255.53 1049.92,1256.02 1046.76,1256.38 1043.66,1257.06 1040.65,1258.11 1042.53,1257.13 1040.29,1259.38 1038.58,1262.07 1036.52,1264.49 1034.29,1266.76 1032.56,1269.43 1030.9,1272.14 1029.49,1274.99 1028,1277.8 1027.09,1280.85 1027.45,1278.76 1026.94,1281.9 1027.72,1279.93 1029.01,1278.24 1030.65,1276.89 1032.2,1275.45 1033.85,1274.11 1035.65,1273 1033.04,1274.82 1030.43,1276.64 1027.69,1278.25 1025.11,1280.11 1022.45,1281.86 1019.92,1283.78 1017.2,1285.42 1014.87,1287.59 1013.51,1290.47 1011.67,1293.06 1010.87,1296.14 1009.46,1298.99 1008.34,1301.97 1006.95,1304.83 1006.14,1307.91 1005.73,1311.06 1005.52,1314.23 1006.1,1312.19 1006.13,1310.07 1006.65,1313.21 1006.82,1316.39 1007.6,1319.47 1008.15,1322.6 1009.76,1325.34 1010.63,1328.4 1011.56,1331.45 1011.53,1329.33 1011.94,1327.25 1012.37,1325.17 1013.43,1323.33 1014.48,1321.49 1015.76,1319.8 1016.85,1317.98 1017.72,1316.05 1016.96,1314.06 1016.37,1312.03 1015.5,1310.09 1014.67,1308.14 1013.69,1306.26 1012.56,1304.47 1011.37,1302.71 1009.99,1301.1 1008.21,1299.95 1010.72,1301.91 1013.56,1303.34 1016.27,1305 1018.87,1306.84 1021.37,1308.8 1023.31,1311.33 1022.34,1309.44 1021.5,1307.49 1020.42,1305.67 1019.13,1303.99 1017.88,1302.27 1016.99,1300.35 1016.42,1298.3 1015.63,1296.34 1014.58,1294.49 1013.36,1292.76 1012.02,1291.11 1010.59,1289.55 1009.25,1287.9 1010.98,1290.57 1009.76,1288.84 1008.58,1287.07 1007.46,1285.28 1006.19,1283.58 1004.86,1281.92 1003.26,1280.53 1005.31,1282.97 1007.47,1285.3 1009.57,1287.7 1010.97,1290.55 1011.96,1293.57 1013.36,1296.43 1014.91,1299.2 1016.6,1301.9 1018.26,1304.61 1020.16,1307.16 1021.33,1310.12 1023.11,1312.76 1024.47,1315.63 1026.52,1318.07 1028.36,1320.67 1030.31,1323.17 1029.02,1321.49 1030.33,1324.39 1032.19,1326.97 1033.78,1329.73 1035.72,1332.25 1037.29,1335.02 1038.77,1337.83 1040.24,1340.65 1042.03,1343.28 1044.36,1345.44 1046.6,1347.71 1049.02,1349.77 1051.83,1351.26 1054.82,1352.34 1057.42,1354.17 1059.63,1356.46 1061.67,1358.9 1063.75,1361.3 1065.9,1363.65 1068.22,1365.83 1070.85,1367.62 1073.24,1369.72 1071.55,1368.44 1070.11,1366.88 1072.17,1369.3 1073.6,1372.14 1073.91,1375.31 1073.33,1378.44 1071.61,1381.12 1071.01,1384.24 "/>
<polyline clip-path="url(#clip141)" style="stroke:#3da44d; stroke-linecap:round; stroke-linejoin:round; stroke-width:4; stroke-opacity:1; fill:none" points="1158.99,264.42 1159.16,261.775 1159.09,259.125 1158.79,256.491 1158.64,253.844 1158.41,251.204 1158.37,248.554 1158.31,251.204 1155.67,251.091 1153.06,251.601 1150.41,251.556 1147.8,251.103 1145.15,250.983 1142.52,251.318 1139.89,251.627 1137.26,251.976 1134.67,252.522 1137.23,251.828 1139.74,250.985 1142.38,250.731 1145.02,250.516 1144.34,247.955 1143.82,245.355 1144.04,247.997 1146.6,247.32 1144.07,248.113 1144.35,250.749 1144.39,253.399 1143.98,256.019 1143.17,258.541 1142.19,261.004 1141.92,263.641 1141.24,266.203 1141.95,263.65 1143.07,261.247 1144.23,258.862 1141.94,257.515 1140.14,255.571 1137.89,254.178 1135.5,253.019 1133.32,251.508 1131.25,249.855 1129.24,248.131 1127.51,246.12 1125.72,244.17 1123.67,242.485 1122.06,240.375 1120.01,238.696 1117.88,237.117 1115.56,235.84 1113.31,234.441 1111.02,233.105 1113.49,234.063 1115.84,235.299 1114.75,237.718 1114.25,240.319 1114.56,242.952 1114.65,245.601 1114.73,248.251 1114.73,250.901 1114.7,253.552 1114.57,256.199 1114.64,258.849 1114.67,261.5 1114.59,264.149 1114.68,266.799 1114.95,269.435 1115.92,271.901 1116.72,274.43 1117.27,277.024 1118.09,279.544 1119.18,281.957 1120.93,283.95 1122.76,285.87 1120.82,284.06 1118.76,282.399 1116.74,280.681 1114.79,282.483 1113.3,284.676 1111.5,286.622 1109.87,288.711 1108.2,290.766 1106.56,292.849 1104.85,294.878 1103.44,297.124 1101.98,299.335 1100.47,301.511 1098.94,303.674 1097.25,305.722 1098.6,303.44 1099.53,300.956 1100.24,298.403 1101.29,295.967 1102.42,293.57 1103.46,291.131 1104.01,288.539 1106.66,288.594 1109.29,288.234 1106.65,288.51 1106.69,291.16 1106.92,293.801 1107.18,296.439 1107.41,299.081 1108.17,301.62 1109.24,304.046 1110.42,306.419 1111.76,308.706 1112.71,311.18 1113.59,313.679 1114.69,316.091 1115.15,318.702 1116.2,321.135 1117.72,323.311 1119.63,325.141 1121.73,326.765 1123.8,328.414 1125.8,330.163 1128.01,331.628 1130.25,333.038 1132.31,334.703 1134.36,336.392 1136.29,338.209 1138.31,339.925 1140.76,340.936 1143.01,342.338 1145.44,343.401 1143.25,341.906 1140.92,340.64 1138.8,339.042 1137.29,341.223 1135.47,343.142 1134.36,345.553 1133.75,348.131 1133.24,350.734 1132.86,353.356 1132.83,356.007 1132.96,353.36 1133.09,350.712 1133.48,348.09 1133.59,345.441 1134.32,342.894 1136.72,344.018 1139.32,344.561 1141.9,345.156 1144.41,346.006 1147.01,346.532 1149.48,347.492 1151.91,348.554 1154.21,349.864 1151.77,348.843 1149.21,348.143 1150.26,345.708 1150.74,343.101 1151.34,340.52 1151.57,337.879 1151.99,335.262 1151.23,337.8 1150.72,340.403 1149.86,342.91 1152.48,343.344 1155.02,344.091 1157.65,344.427 1160.1,345.441 1162.62,346.251 1165.27,346.153 1167.9,345.812 1170.55,345.8 1173.2,345.861 1175.82,346.316 1178.41,346.86 1181.02,347.309 1183.67,347.42 1186.21,348.167 1188.64,349.235 1191.11,350.192 1193.63,351.008 1196.15,351.84 1198.43,353.196 1200.7,354.565 1203.11,355.674 1205.68,356.296 1208.03,357.527 1210.38,358.752 1212.63,360.15 1214.63,361.892 1216.85,363.339 1218.84,365.095 1220.7,366.983 1222.55,368.876 1223.75,371.241 1224.94,373.611 1225.86,376.098 1226.28,378.714 1227.04,381.254 1227.73,383.815 1228.19,386.424 1228.64,389.037 1229.51,391.542 1229.88,394.167 1230.35,396.775 1230.58,399.416 1229.73,401.928 1228.82,404.417 1229.56,401.871 1227.12,400.816 1224.84,399.466 1222.63,397.999 1220.38,396.612 1217.81,395.958 1215.25,395.257 1212.63,394.861 1210.26,393.681 1207.86,392.546 1205.34,391.729 1202.82,390.904 1200.25,390.232 1197.77,389.299 1195.44,388.038 1193.29,386.495 1191.27,384.777 1189.02,383.373 1186.66,382.163 1184.24,381.082 1181.76,380.144 1179.18,379.551 1176.57,379.097 1173.99,378.472 1171.43,377.789 1169.23,376.306 1167.01,374.865 1164.94,373.201 1163.08,371.319 1161.61,369.114 1160.23,366.846 1158.83,364.594 1157.05,362.636 1155.67,360.369 1154.6,357.947 1153.78,355.424 1153.27,352.823 1153.39,350.175 1153.24,347.528 1152.84,344.908 1152.3,342.311 1151.4,339.821 1150.62,337.286 1150.07,334.693 1149.66,332.075 1148.87,329.545 1147.82,327.107 1146.79,324.666 1146.01,322.133 1145.26,319.592 1144.69,317.001 1144.16,314.404 1143.61,311.811 1143.03,309.226 1142.4,306.649 1141.57,304.133 1142.17,306.714 1142.94,309.252 1143.81,311.757 1141.46,312.988 1139,313.98 1136.49,314.842 1133.86,315.144 1131.22,314.911 1133.87,314.864 1134.13,312.225 1134.46,309.595 1135.33,307.092 1136.28,304.616 1137.48,302.251 1139.02,300.098 1140.43,297.851 1142.32,295.998 1144.05,293.984 1145.3,291.649 1146.59,289.333 1148.01,287.095 1149.66,285.02 1151.27,282.91 1152.66,280.657 1154.16,278.473 1155.69,276.303 1156.81,273.9 1157.89,271.483 1158.68,268.952 1159.9,266.596 1161.24,264.31 1162.29,261.875 1163.89,259.764 1165.22,257.468 1165.95,254.921 1166.6,252.351 1167.31,249.796 1168.04,247.251 1168.91,244.746 1169.4,242.14 1169.46,239.49 1169.75,236.856 1170.15,234.235 1170.51,231.608 1171.47,229.138 1172.63,226.756 1173.18,224.163 1173.67,221.557 1173.92,218.918 1174.69,216.382 1175.9,214.023 1177.1,211.659 1178.09,209.2 1179.1,206.75 1179.82,204.2 1181.2,201.932 1182.35,199.544 1183.36,197.093 1184.25,194.597 1185.31,192.17 1186.58,189.839 1187.4,187.317 1188.15,184.777 1188.67,182.177 1189.08,179.559 1190.07,177.098 1190.65,174.512 1191.11,171.901 1191.24,169.253 1191.55,166.621 1191.98,164.005 1192.47,161.401 1192,164.01 1189.35,163.941 1186.71,164.015 1184.05,164.053 1181.48,163.432 1178.84,163.133 1176.24,162.65 1178.74,163.521 1181.26,164.344 1182.08,161.823 1182.84,159.284 1183.15,156.651 1183.82,154.086 1184.44,151.508 1185.73,149.192 1184.41,151.494 1183.27,153.887 1181.8,156.095 1184.11,157.41 1186.33,158.851 1188.67,160.095 1190.94,161.469 1188.66,160.108 1186.35,158.814 1183.84,157.95 1185.27,155.718 1186.52,153.38 1187.98,151.164 1189.52,149.011 1191.37,147.104 1193.43,145.444 1191.63,147.39 1189.76,149.266 1188.24,151.436 1185.91,152.699 1187.28,154.964 1188.92,157.049 1190.37,159.272 1192.22,161.165 1194.22,162.903 1192.06,161.363 1189.88,159.866 1187.8,158.213 1185.63,156.692 1183.34,155.354 1184.91,153.217 1186.36,150.996 1188.23,149.121 1190.16,147.298 1192.06,145.449 1193.98,143.627 1195.93,141.831 1198.21,140.478 1200.42,139.011 1202.74,137.728 1205.22,136.802 1207.75,136.014 1210.23,135.075 1212.67,134.026 1214.98,132.727 1217.21,131.298 1219.52,130 1221.84,128.71 1223.97,127.141 1226.04,125.479 1228.26,124.033 1230.49,122.603 1232.92,121.546 1235.42,120.652 1237.85,119.582 1240.2,118.368 1242.44,116.949 1244.51,115.291 1246.71,113.812 1249.03,112.54 1251.51,111.599 1254.12,111.11 1256.73,110.632 1259.35,110.229 1261.99,110.1 1264.64,110.07 1267.29,110.047 1269.94,109.993 1272.53,109.391 1275.15,109 1277.8,109.013 1275.15,109.196 1272.51,109.061 1269.87,109.346 1267.22,109.326 1267.95,111.876 1267.98,114.527 1267.64,117.157 1267.16,119.763 1266.71,122.375 1265.65,124.806 1264.69,127.278 1263.44,129.614 1262.49,132.089 1261.57,134.574 1262.38,132.051 1262.5,129.403 1263.01,126.801 1262.82,124.157 1262.26,121.566 1259.62,121.803 1256.99,122.135 1254.38,122.579 1257.02,122.393 1257.25,125.034 1257.24,127.684 1257.65,130.303 1258.05,132.923 1258.71,135.492 1258.78,138.141 1259.04,140.779 1258.61,143.394 1257.76,145.905 1257.39,148.53 1257.28,151.179 1257.23,153.829 1257.47,156.469 1258.34,158.974 1259.24,161.465 1259.64,164.086 1259.72,166.735 1259.89,169.381 1260.2,172.013 1260.49,174.648 1261.32,177.165 1263,179.217 1264.6,181.332 1266.62,183.052 1268.66,184.735 1271.06,185.871 1273.49,186.938 1275.84,188.151 1278.34,189.054 1280.84,189.936 1283.39,190.626 1285.99,191.141 1288.65,191.197 1291.29,191.427 1293.84,192.142 1296.46,192.54 1298.83,193.722 1301.36,194.524 1303.92,195.219 1306.56,195.437 1309.17,195.917 1311.79,195.524 1314.41,195.155 1316.95,194.376 1319.54,193.81 1322.09,193.106 1324.62,192.318 1327.18,191.617 1329.72,190.857 1332.37,190.783 1334.9,191.56 1337.36,192.549 1334.81,191.817 1332.23,191.232 1329.9,189.959 1327.63,188.587 1325.69,186.782 1323.63,185.123 1321.62,183.389 1319.81,181.458 1318.07,179.449 1316.08,181.201 1314.07,182.927 1311.98,184.56 1310.1,186.419 1308.72,188.684 1307.22,190.869 1305.34,192.74 1303.45,194.601 1301.68,196.574 1300.19,198.763 1298.28,200.607 1296.67,202.713 1295.54,205.109 1294.72,207.629 1294.65,204.979 1293.9,202.436 1292.93,199.967 1292.25,197.406 1291.15,194.994 1290.27,192.492 1289.21,190.063 1287.35,191.947 1289.37,190.238 1291.74,189.048 1293.97,187.61 1296.16,186.125 1297.15,188.587 1296.22,186.104 1295.66,183.512 1295.06,180.93 1297.68,180.52 1300.31,180.168 1302.96,180.255 1305.6,180.45 1308.15,181.187 1310.7,181.89 1313.15,182.906 1315.57,183.997 1317.86,185.326 1320,186.894 1322.1,188.51 1324.12,190.223 1322.28,188.32 1320.77,186.143 1318.24,186.952 1315.8,187.989 1313.2,188.49 1310.59,188.984 1307.98,189.406 1305.46,190.242 1302.95,191.076 1300.4,191.824 1297.83,192.462 1295.27,193.157 1292.62,193.176 1290.01,193.646 1287.47,194.38 1284.89,194.991 1282.37,195.822 1280.04,197.093 1277.94,198.703 1275.64,200.027 1273.49,201.577 1275.88,200.433 1278.14,199.04 1280.5,197.833 1279.55,195.358 1278.39,192.974 1277.28,190.567 1276.28,188.111 1275.53,185.567 1274.57,183.098 1273.27,180.785 1271.86,178.546 1270.68,176.17 1270.35,173.54 1270.35,170.889 1270.11,168.249 1269.49,165.672 1268.59,163.18 1269.7,165.587 1270.78,168.006 1272.13,170.289 1272.84,172.843 1273.62,175.375 1274.31,177.935 1276.76,176.92 1279.12,175.718 1281.37,174.32 1283.55,172.803 1285.69,171.241 1287.69,169.503 1289.97,168.143 1292,166.438 1294.46,165.459 1296.91,164.457 1299.46,163.738 1301.53,162.081 1303.45,160.252 1305.56,158.644 "/>
<path clip-path="url(#clip140)" d="M1691.57 300.469 L2283.41 300.469 L2283.41 93.1086 L1691.57 93.1086  Z" fill="#ffffff" fill-rule="evenodd" fill-opacity="1"/>
<polyline clip-path="url(#clip140)" style="stroke:#000000; stroke-linecap:round; stroke-linejoin:round; stroke-width:4; stroke-opacity:1; fill:none" points="1691.57,300.469 2283.41,300.469 2283.41,93.1086 1691.57,93.1086 1691.57,300.469 "/>
<polyline clip-path="url(#clip140)" style="stroke:#009af9; stroke-linecap:round; stroke-linejoin:round; stroke-width:4; stroke-opacity:1; fill:none" points="1714.68,144.949 1853.38,144.949 "/>
<path clip-path="url(#clip140)" d="M1892.89 146.025 Q1894.39 146.534 1895.8 148.201 Q1897.24 149.868 1898.67 152.784 L1903.42 162.229 L1898.39 162.229 L1893.97 153.363 Q1892.26 149.891 1890.64 148.756 Q1889.04 147.622 1886.27 147.622 L1881.17 147.622 L1881.17 162.229 L1876.5 162.229 L1876.5 127.669 L1887.05 127.669 Q1892.98 127.669 1895.89 130.145 Q1898.81 132.622 1898.81 137.622 Q1898.81 140.886 1897.28 143.039 Q1895.78 145.192 1892.89 146.025 M1881.17 131.511 L1881.17 143.78 L1887.05 143.78 Q1890.43 143.78 1892.14 142.229 Q1893.88 140.655 1893.88 137.622 Q1893.88 134.59 1892.14 133.062 Q1890.43 131.511 1887.05 131.511 L1881.17 131.511 Z" fill="#000000" fill-rule="nonzero" fill-opacity="1" /><path clip-path="url(#clip140)" d="M1906.68 151.997 L1906.68 136.303 L1910.94 136.303 L1910.94 151.835 Q1910.94 155.516 1912.38 157.368 Q1913.81 159.196 1916.68 159.196 Q1920.13 159.196 1922.12 156.997 Q1924.14 154.798 1924.14 151.002 L1924.14 136.303 L1928.39 136.303 L1928.39 162.229 L1924.14 162.229 L1924.14 158.247 Q1922.58 160.608 1920.52 161.766 Q1918.49 162.9 1915.78 162.9 Q1911.31 162.9 1909 160.122 Q1906.68 157.344 1906.68 151.997 M1917.4 135.678 L1917.4 135.678 Z" fill="#000000" fill-rule="nonzero" fill-opacity="1" /><path clip-path="url(#clip140)" d="M1958.72 146.581 L1958.72 162.229 L1954.46 162.229 L1954.46 146.719 Q1954.46 143.039 1953.02 141.21 Q1951.59 139.382 1948.72 139.382 Q1945.27 139.382 1943.28 141.581 Q1941.29 143.78 1941.29 147.576 L1941.29 162.229 L1937.01 162.229 L1937.01 136.303 L1941.29 136.303 L1941.29 140.331 Q1942.82 137.993 1944.88 136.835 Q1946.96 135.678 1949.67 135.678 Q1954.14 135.678 1956.43 138.456 Q1958.72 141.21 1958.72 146.581 Z" fill="#000000" fill-rule="nonzero" fill-opacity="1" /><path clip-path="url(#clip140)" d="M1962.61 127.669 L1991.84 127.669 L1991.84 131.604 L1979.57 131.604 L1979.57 162.229 L1974.88 162.229 L1974.88 131.604 L1962.61 131.604 L1962.61 127.669 Z" fill="#000000" fill-rule="nonzero" fill-opacity="1" /><path clip-path="url(#clip140)" d="M1988.53 151.997 L1988.53 136.303 L1992.79 136.303 L1992.79 151.835 Q1992.79 155.516 1994.23 157.368 Q1995.66 159.196 1998.53 159.196 Q2001.98 159.196 2003.97 156.997 Q2005.99 154.798 2005.99 151.002 L2005.99 136.303 L2010.25 136.303 L2010.25 162.229 L2005.99 162.229 L2005.99 158.247 Q2004.44 160.608 2002.38 161.766 Q2000.34 162.9 1997.63 162.9 Q1993.16 162.9 1990.85 160.122 Q1988.53 157.344 1988.53 151.997 M1999.25 135.678 L1999.25 135.678 Z" fill="#000000" fill-rule="nonzero" fill-opacity="1" /><path clip-path="url(#clip140)" d="M2039.2 141.28 Q2040.8 138.409 2043.02 137.044 Q2045.25 135.678 2048.26 135.678 Q2052.31 135.678 2054.51 138.525 Q2056.7 141.349 2056.7 146.581 L2056.7 162.229 L2052.42 162.229 L2052.42 146.719 Q2052.42 142.993 2051.1 141.187 Q2049.78 139.382 2047.07 139.382 Q2043.76 139.382 2041.84 141.581 Q2039.92 143.78 2039.92 147.576 L2039.92 162.229 L2035.64 162.229 L2035.64 146.719 Q2035.64 142.969 2034.32 141.187 Q2033 139.382 2030.25 139.382 Q2026.98 139.382 2025.06 141.604 Q2023.14 143.803 2023.14 147.576 L2023.14 162.229 L2018.86 162.229 L2018.86 136.303 L2023.14 136.303 L2023.14 140.331 Q2024.6 137.946 2026.63 136.812 Q2028.67 135.678 2031.47 135.678 Q2034.3 135.678 2036.26 137.113 Q2038.26 138.548 2039.2 141.28 Z" fill="#000000" fill-rule="nonzero" fill-opacity="1" /><path clip-path="url(#clip140)" d="M2083.81 149.289 Q2083.81 144.59 2081.87 141.928 Q2079.94 139.243 2076.57 139.243 Q2073.19 139.243 2071.24 141.928 Q2069.32 144.59 2069.32 149.289 Q2069.32 153.988 2071.24 156.673 Q2073.19 159.335 2076.57 159.335 Q2079.94 159.335 2081.87 156.673 Q2083.81 153.988 2083.81 149.289 M2069.32 140.238 Q2070.66 137.923 2072.7 136.812 Q2074.76 135.678 2077.61 135.678 Q2082.33 135.678 2085.27 139.428 Q2088.23 143.178 2088.23 149.289 Q2088.23 155.4 2085.27 159.15 Q2082.33 162.9 2077.61 162.9 Q2074.76 162.9 2072.7 161.789 Q2070.66 160.655 2069.32 158.34 L2069.32 162.229 L2065.04 162.229 L2065.04 126.21 L2069.32 126.21 L2069.32 140.238 Z" fill="#000000" fill-rule="nonzero" fill-opacity="1" /><path clip-path="url(#clip140)" d="M2095.29 126.21 L2099.55 126.21 L2099.55 162.229 L2095.29 162.229 L2095.29 126.21 Z" fill="#000000" fill-rule="nonzero" fill-opacity="1" /><path clip-path="url(#clip140)" d="M2130.64 148.201 L2130.64 150.284 L2111.06 150.284 Q2111.33 154.682 2113.69 156.997 Q2116.08 159.289 2120.31 159.289 Q2122.77 159.289 2125.06 158.687 Q2127.38 158.085 2129.64 156.881 L2129.64 160.909 Q2127.35 161.881 2124.94 162.391 Q2122.54 162.9 2120.06 162.9 Q2113.86 162.9 2110.22 159.289 Q2106.61 155.678 2106.61 149.52 Q2106.61 143.155 2110.04 139.428 Q2113.49 135.678 2119.32 135.678 Q2124.55 135.678 2127.58 139.057 Q2130.64 142.414 2130.64 148.201 M2126.38 146.951 Q2126.33 143.456 2124.41 141.372 Q2122.51 139.289 2119.37 139.289 Q2115.8 139.289 2113.65 141.303 Q2111.52 143.317 2111.19 146.974 L2126.38 146.951 Z" fill="#000000" fill-rule="nonzero" fill-opacity="1" /><polyline clip-path="url(#clip140)" style="stroke:#e26f46; stroke-linecap:round; stroke-linejoin:round; stroke-width:4; stroke-opacity:1; fill:none" points="1714.68,196.789 1853.38,196.789 "/>
<path clip-path="url(#clip140)" d="M1892.89 197.865 Q1894.39 198.374 1895.8 200.041 Q1897.24 201.708 1898.67 204.624 L1903.42 214.069 L1898.39 214.069 L1893.97 205.203 Q1892.26 201.731 1890.64 200.596 Q1889.04 199.462 1886.27 199.462 L1881.17 199.462 L1881.17 214.069 L1876.5 214.069 L1876.5 179.509 L1887.05 179.509 Q1892.98 179.509 1895.89 181.985 Q1898.81 184.462 1898.81 189.462 Q1898.81 192.726 1897.28 194.879 Q1895.78 197.032 1892.89 197.865 M1881.17 183.351 L1881.17 195.62 L1887.05 195.62 Q1890.43 195.62 1892.14 194.069 Q1893.88 192.495 1893.88 189.462 Q1893.88 186.43 1892.14 184.902 Q1890.43 183.351 1887.05 183.351 L1881.17 183.351 Z" fill="#000000" fill-rule="nonzero" fill-opacity="1" /><path clip-path="url(#clip140)" d="M1906.68 203.837 L1906.68 188.143 L1910.94 188.143 L1910.94 203.675 Q1910.94 207.356 1912.38 209.208 Q1913.81 211.036 1916.68 211.036 Q1920.13 211.036 1922.12 208.837 Q1924.14 206.638 1924.14 202.842 L1924.14 188.143 L1928.39 188.143 L1928.39 214.069 L1924.14 214.069 L1924.14 210.087 Q1922.58 212.448 1920.52 213.606 Q1918.49 214.74 1915.78 214.74 Q1911.31 214.74 1909 211.962 Q1906.68 209.184 1906.68 203.837 M1917.4 187.518 L1917.4 187.518 Z" fill="#000000" fill-rule="nonzero" fill-opacity="1" /><path clip-path="url(#clip140)" d="M1958.72 198.421 L1958.72 214.069 L1954.46 214.069 L1954.46 198.559 Q1954.46 194.879 1953.02 193.05 Q1951.59 191.222 1948.72 191.222 Q1945.27 191.222 1943.28 193.421 Q1941.29 195.62 1941.29 199.416 L1941.29 214.069 L1937.01 214.069 L1937.01 188.143 L1941.29 188.143 L1941.29 192.171 Q1942.82 189.833 1944.88 188.675 Q1946.96 187.518 1949.67 187.518 Q1954.14 187.518 1956.43 190.296 Q1958.72 193.05 1958.72 198.421 Z" fill="#000000" fill-rule="nonzero" fill-opacity="1" /><path clip-path="url(#clip140)" d="M1983.79 197.865 Q1985.29 198.374 1986.7 200.041 Q1988.14 201.708 1989.57 204.624 L1994.32 214.069 L1989.3 214.069 L1984.88 205.203 Q1983.16 201.731 1981.54 200.596 Q1979.95 199.462 1977.17 199.462 L1972.07 199.462 L1972.07 214.069 L1967.4 214.069 L1967.4 179.509 L1977.95 179.509 Q1983.88 179.509 1986.8 181.985 Q1989.71 184.462 1989.71 189.462 Q1989.71 192.726 1988.19 194.879 Q1986.68 197.032 1983.79 197.865 M1972.07 183.351 L1972.07 195.62 L1977.95 195.62 Q1981.33 195.62 1983.05 194.069 Q1984.78 192.495 1984.78 189.462 Q1984.78 186.43 1983.05 184.902 Q1981.33 183.351 1977.95 183.351 L1972.07 183.351 Z" fill="#000000" fill-rule="nonzero" fill-opacity="1" /><path clip-path="url(#clip140)" d="M2020.2 200.041 L2020.2 202.124 L2000.62 202.124 Q2000.89 206.522 2003.26 208.837 Q2005.64 211.129 2009.88 211.129 Q2012.33 211.129 2014.62 210.527 Q2016.94 209.925 2019.2 208.721 L2019.2 212.749 Q2016.91 213.721 2014.51 214.231 Q2012.1 214.74 2009.62 214.74 Q2003.42 214.74 1999.78 211.129 Q1996.17 207.518 1996.17 201.36 Q1996.17 194.995 1999.6 191.268 Q2003.05 187.518 2008.88 187.518 Q2014.11 187.518 2017.14 190.897 Q2020.2 194.254 2020.2 200.041 M2015.94 198.791 Q2015.89 195.296 2013.97 193.212 Q2012.07 191.129 2008.93 191.129 Q2005.36 191.129 2003.21 193.143 Q2001.08 195.157 2000.76 198.814 L2015.94 198.791 Z" fill="#000000" fill-rule="nonzero" fill-opacity="1" /><path clip-path="url(#clip140)" d="M2024.13 188.143 L2028.65 188.143 L2036.75 209.902 L2044.85 188.143 L2049.37 188.143 L2039.64 214.069 L2033.86 214.069 L2024.13 188.143 Z" fill="#000000" fill-rule="nonzero" fill-opacity="1" /><path clip-path="url(#clip140)" d="M2077.42 200.041 L2077.42 202.124 L2057.84 202.124 Q2058.12 206.522 2060.48 208.837 Q2062.86 211.129 2067.1 211.129 Q2069.55 211.129 2071.84 210.527 Q2074.16 209.925 2076.43 208.721 L2076.43 212.749 Q2074.13 213.721 2071.73 214.231 Q2069.32 214.74 2066.84 214.74 Q2060.64 214.74 2057.01 211.129 Q2053.39 207.518 2053.39 201.36 Q2053.39 194.995 2056.82 191.268 Q2060.27 187.518 2066.1 187.518 Q2071.33 187.518 2074.37 190.897 Q2077.42 194.254 2077.42 200.041 M2073.16 198.791 Q2073.12 195.296 2071.19 193.212 Q2069.3 191.129 2066.15 191.129 Q2062.58 191.129 2060.43 193.143 Q2058.3 195.157 2057.98 198.814 L2073.16 198.791 Z" fill="#000000" fill-rule="nonzero" fill-opacity="1" /><path clip-path="url(#clip140)" d="M2099.44 192.124 Q2098.72 191.708 2097.86 191.522 Q2097.03 191.314 2096.01 191.314 Q2092.4 191.314 2090.45 193.675 Q2088.53 196.013 2088.53 200.411 L2088.53 214.069 L2084.25 214.069 L2084.25 188.143 L2088.53 188.143 L2088.53 192.171 Q2089.88 189.809 2092.03 188.675 Q2094.18 187.518 2097.26 187.518 Q2097.7 187.518 2098.23 187.587 Q2098.76 187.634 2099.41 187.749 L2099.44 192.124 Z" fill="#000000" fill-rule="nonzero" fill-opacity="1" /><path clip-path="url(#clip140)" d="M2120.43 188.907 L2120.43 192.934 Q2118.63 192.009 2116.68 191.546 Q2114.74 191.083 2112.65 191.083 Q2109.48 191.083 2107.88 192.055 Q2106.31 193.027 2106.31 194.971 Q2106.31 196.453 2107.44 197.309 Q2108.58 198.143 2112 198.907 L2113.46 199.231 Q2118 200.203 2119.9 201.985 Q2121.82 203.745 2121.82 206.916 Q2121.82 210.527 2118.95 212.633 Q2116.1 214.74 2111.1 214.74 Q2109.02 214.74 2106.75 214.323 Q2104.5 213.93 2102 213.12 L2102 208.721 Q2104.37 209.948 2106.66 210.573 Q2108.95 211.175 2111.19 211.175 Q2114.2 211.175 2115.82 210.157 Q2117.44 209.115 2117.44 207.24 Q2117.44 205.504 2116.26 204.578 Q2115.11 203.652 2111.15 202.796 L2109.67 202.448 Q2105.71 201.615 2103.95 199.902 Q2102.19 198.166 2102.19 195.157 Q2102.19 191.499 2104.78 189.509 Q2107.38 187.518 2112.14 187.518 Q2114.5 187.518 2116.59 187.865 Q2118.67 188.212 2120.43 188.907 Z" fill="#000000" fill-rule="nonzero" fill-opacity="1" /><path clip-path="url(#clip140)" d="M2150.78 200.041 L2150.78 202.124 L2131.19 202.124 Q2131.47 206.522 2133.83 208.837 Q2136.22 211.129 2140.45 211.129 Q2142.91 211.129 2145.2 210.527 Q2147.51 209.925 2149.78 208.721 L2149.78 212.749 Q2147.49 213.721 2145.08 214.231 Q2142.68 214.74 2140.2 214.74 Q2134 214.74 2130.36 211.129 Q2126.75 207.518 2126.75 201.36 Q2126.75 194.995 2130.18 191.268 Q2133.63 187.518 2139.46 187.518 Q2144.69 187.518 2147.72 190.897 Q2150.78 194.254 2150.78 200.041 M2146.52 198.791 Q2146.47 195.296 2144.55 193.212 Q2142.65 191.129 2139.5 191.129 Q2135.94 191.129 2133.79 193.143 Q2131.66 195.157 2131.33 198.814 L2146.52 198.791 Z" fill="#000000" fill-rule="nonzero" fill-opacity="1" /><polyline clip-path="url(#clip140)" style="stroke:#3da44d; stroke-linecap:round; stroke-linejoin:round; stroke-width:4; stroke-opacity:1; fill:none" points="1714.68,248.629 1853.38,248.629 "/>
<path clip-path="url(#clip140)" d="M1892.89 249.705 Q1894.39 250.214 1895.8 251.881 Q1897.24 253.548 1898.67 256.464 L1903.42 265.909 L1898.39 265.909 L1893.97 257.043 Q1892.26 253.571 1890.64 252.436 Q1889.04 251.302 1886.27 251.302 L1881.17 251.302 L1881.17 265.909 L1876.5 265.909 L1876.5 231.349 L1887.05 231.349 Q1892.98 231.349 1895.89 233.825 Q1898.81 236.302 1898.81 241.302 Q1898.81 244.566 1897.28 246.719 Q1895.78 248.872 1892.89 249.705 M1881.17 235.191 L1881.17 247.46 L1887.05 247.46 Q1890.43 247.46 1892.14 245.909 Q1893.88 244.335 1893.88 241.302 Q1893.88 238.27 1892.14 236.742 Q1890.43 235.191 1887.05 235.191 L1881.17 235.191 Z" fill="#000000" fill-rule="nonzero" fill-opacity="1" /><path clip-path="url(#clip140)" d="M1906.68 255.677 L1906.68 239.983 L1910.94 239.983 L1910.94 255.515 Q1910.94 259.196 1912.38 261.048 Q1913.81 262.876 1916.68 262.876 Q1920.13 262.876 1922.12 260.677 Q1924.14 258.478 1924.14 254.682 L1924.14 239.983 L1928.39 239.983 L1928.39 265.909 L1924.14 265.909 L1924.14 261.927 Q1922.58 264.288 1920.52 265.446 Q1918.49 266.58 1915.78 266.58 Q1911.31 266.58 1909 263.802 Q1906.68 261.024 1906.68 255.677 M1917.4 239.358 L1917.4 239.358 Z" fill="#000000" fill-rule="nonzero" fill-opacity="1" /><path clip-path="url(#clip140)" d="M1958.72 250.261 L1958.72 265.909 L1954.46 265.909 L1954.46 250.399 Q1954.46 246.719 1953.02 244.89 Q1951.59 243.062 1948.72 243.062 Q1945.27 243.062 1943.28 245.261 Q1941.29 247.46 1941.29 251.256 L1941.29 265.909 L1937.01 265.909 L1937.01 239.983 L1941.29 239.983 L1941.29 244.011 Q1942.82 241.673 1944.88 240.515 Q1946.96 239.358 1949.67 239.358 Q1954.14 239.358 1956.43 242.136 Q1958.72 244.89 1958.72 250.261 Z" fill="#000000" fill-rule="nonzero" fill-opacity="1" /><path clip-path="url(#clip140)" d="M1983.79 249.705 Q1985.29 250.214 1986.7 251.881 Q1988.14 253.548 1989.57 256.464 L1994.32 265.909 L1989.3 265.909 L1984.88 257.043 Q1983.16 253.571 1981.54 252.436 Q1979.95 251.302 1977.17 251.302 L1972.07 251.302 L1972.07 265.909 L1967.4 265.909 L1967.4 231.349 L1977.95 231.349 Q1983.88 231.349 1986.8 233.825 Q1989.71 236.302 1989.71 241.302 Q1989.71 244.566 1988.19 246.719 Q1986.68 248.872 1983.79 249.705 M1972.07 235.191 L1972.07 247.46 L1977.95 247.46 Q1981.33 247.46 1983.05 245.909 Q1984.78 244.335 1984.78 241.302 Q1984.78 238.27 1983.05 236.742 Q1981.33 235.191 1977.95 235.191 L1972.07 235.191 Z" fill="#000000" fill-rule="nonzero" fill-opacity="1" /><path clip-path="url(#clip140)" d="M2020.2 251.881 L2020.2 253.964 L2000.62 253.964 Q2000.89 258.362 2003.26 260.677 Q2005.64 262.969 2009.88 262.969 Q2012.33 262.969 2014.62 262.367 Q2016.94 261.765 2019.2 260.561 L2019.2 264.589 Q2016.91 265.561 2014.51 266.071 Q2012.1 266.58 2009.62 266.58 Q2003.42 266.58 1999.78 262.969 Q1996.17 259.358 1996.17 253.2 Q1996.17 246.835 1999.6 243.108 Q2003.05 239.358 2008.88 239.358 Q2014.11 239.358 2017.14 242.737 Q2020.2 246.094 2020.2 251.881 M2015.94 250.631 Q2015.89 247.136 2013.97 245.052 Q2012.07 242.969 2008.93 242.969 Q2005.36 242.969 2003.21 244.983 Q2001.08 246.997 2000.76 250.654 L2015.94 250.631 Z" fill="#000000" fill-rule="nonzero" fill-opacity="1" /><path clip-path="url(#clip140)" d="M2024.13 239.983 L2028.65 239.983 L2036.75 261.742 L2044.85 239.983 L2049.37 239.983 L2039.64 265.909 L2033.86 265.909 L2024.13 239.983 Z" fill="#000000" fill-rule="nonzero" fill-opacity="1" /><path clip-path="url(#clip140)" d="M2077.42 251.881 L2077.42 253.964 L2057.84 253.964 Q2058.12 258.362 2060.48 260.677 Q2062.86 262.969 2067.1 262.969 Q2069.55 262.969 2071.84 262.367 Q2074.16 261.765 2076.43 260.561 L2076.43 264.589 Q2074.13 265.561 2071.73 266.071 Q2069.32 266.58 2066.84 266.58 Q2060.64 266.58 2057.01 262.969 Q2053.39 259.358 2053.39 253.2 Q2053.39 246.835 2056.82 243.108 Q2060.27 239.358 2066.1 239.358 Q2071.33 239.358 2074.37 242.737 Q2077.42 246.094 2077.42 251.881 M2073.16 250.631 Q2073.12 247.136 2071.19 245.052 Q2069.3 242.969 2066.15 242.969 Q2062.58 242.969 2060.43 244.983 Q2058.3 246.997 2057.98 250.654 L2073.16 250.631 Z" fill="#000000" fill-rule="nonzero" fill-opacity="1" /><path clip-path="url(#clip140)" d="M2099.44 243.964 Q2098.72 243.548 2097.86 243.362 Q2097.03 243.154 2096.01 243.154 Q2092.4 243.154 2090.45 245.515 Q2088.53 247.853 2088.53 252.251 L2088.53 265.909 L2084.25 265.909 L2084.25 239.983 L2088.53 239.983 L2088.53 244.011 Q2089.88 241.649 2092.03 240.515 Q2094.18 239.358 2097.26 239.358 Q2097.7 239.358 2098.23 239.427 Q2098.76 239.474 2099.41 239.589 L2099.44 243.964 Z" fill="#000000" fill-rule="nonzero" fill-opacity="1" /><path clip-path="url(#clip140)" d="M2120.43 240.747 L2120.43 244.774 Q2118.63 243.849 2116.68 243.386 Q2114.74 242.923 2112.65 242.923 Q2109.48 242.923 2107.88 243.895 Q2106.31 244.867 2106.31 246.811 Q2106.31 248.293 2107.44 249.149 Q2108.58 249.983 2112 250.747 L2113.46 251.071 Q2118 252.043 2119.9 253.825 Q2121.82 255.585 2121.82 258.756 Q2121.82 262.367 2118.95 264.473 Q2116.1 266.58 2111.1 266.58 Q2109.02 266.58 2106.75 266.163 Q2104.5 265.77 2102 264.96 L2102 260.561 Q2104.37 261.788 2106.66 262.413 Q2108.95 263.015 2111.19 263.015 Q2114.2 263.015 2115.82 261.997 Q2117.44 260.955 2117.44 259.08 Q2117.44 257.344 2116.26 256.418 Q2115.11 255.492 2111.15 254.636 L2109.67 254.288 Q2105.71 253.455 2103.95 251.742 Q2102.19 250.006 2102.19 246.997 Q2102.19 243.339 2104.78 241.349 Q2107.38 239.358 2112.14 239.358 Q2114.5 239.358 2116.59 239.705 Q2118.67 240.052 2120.43 240.747 Z" fill="#000000" fill-rule="nonzero" fill-opacity="1" /><path clip-path="url(#clip140)" d="M2150.78 251.881 L2150.78 253.964 L2131.19 253.964 Q2131.47 258.362 2133.83 260.677 Q2136.22 262.969 2140.45 262.969 Q2142.91 262.969 2145.2 262.367 Q2147.51 261.765 2149.78 260.561 L2149.78 264.589 Q2147.49 265.561 2145.08 266.071 Q2142.68 266.58 2140.2 266.58 Q2134 266.58 2130.36 262.969 Q2126.75 259.358 2126.75 253.2 Q2126.75 246.835 2130.18 243.108 Q2133.63 239.358 2139.46 239.358 Q2144.69 239.358 2147.72 242.737 Q2150.78 246.094 2150.78 251.881 M2146.52 250.631 Q2146.47 247.136 2144.55 245.052 Q2142.65 242.969 2139.5 242.969 Q2135.94 242.969 2133.79 244.983 Q2131.66 246.997 2131.33 250.654 L2146.52 250.631 Z" fill="#000000" fill-rule="nonzero" fill-opacity="1" /><path clip-path="url(#clip140)" d="M2157.95 231.349 L2177.81 231.349 L2177.81 235.284 L2162.63 235.284 L2162.63 245.469 L2176.33 245.469 L2176.33 249.404 L2162.63 249.404 L2162.63 265.909 L2157.95 265.909 L2157.95 231.349 Z" fill="#000000" fill-rule="nonzero" fill-opacity="1" /><path clip-path="url(#clip140)" d="M2185.04 229.89 L2189.3 229.89 L2189.3 265.909 L2185.04 265.909 L2185.04 229.89 Z" fill="#000000" fill-rule="nonzero" fill-opacity="1" /><path clip-path="url(#clip140)" d="M2198.21 239.983 L2202.47 239.983 L2202.47 265.909 L2198.21 265.909 L2198.21 239.983 M2198.21 229.89 L2202.47 229.89 L2202.47 235.284 L2198.21 235.284 L2198.21 229.89 Z" fill="#000000" fill-rule="nonzero" fill-opacity="1" /><path clip-path="url(#clip140)" d="M2230.04 240.978 L2230.04 244.96 Q2228.23 243.964 2226.4 243.478 Q2224.6 242.969 2222.74 242.969 Q2218.6 242.969 2216.31 245.608 Q2214.02 248.224 2214.02 252.969 Q2214.02 257.714 2216.31 260.353 Q2218.6 262.969 2222.74 262.969 Q2224.6 262.969 2226.4 262.483 Q2228.23 261.973 2230.04 260.978 L2230.04 264.913 Q2228.25 265.747 2226.33 266.163 Q2224.43 266.58 2222.28 266.58 Q2216.43 266.58 2212.98 262.899 Q2209.53 259.219 2209.53 252.969 Q2209.53 246.626 2213 242.992 Q2216.49 239.358 2222.56 239.358 Q2224.53 239.358 2226.4 239.775 Q2228.28 240.168 2230.04 240.978 Z" fill="#000000" fill-rule="nonzero" fill-opacity="1" /><path clip-path="url(#clip140)" d="M2237.28 229.89 L2241.56 229.89 L2241.56 251.163 L2254.27 239.983 L2259.71 239.983 L2245.96 252.112 L2260.29 265.909 L2254.74 265.909 L2241.56 253.247 L2241.56 265.909 L2237.28 265.909 L2237.28 229.89 Z" fill="#000000" fill-rule="nonzero" fill-opacity="1" /></svg>
